HIERARCHY
ROOT Hips
{
	OFFSET 0.000000 89.005402 0.000000
	CHANNELS 6 Xposition Yposition Zposition Xrotation Yrotation Zrotation
	JOINT Spine
	{
		OFFSET 0.116900 10.681000 0.373400
		CHANNELS 3 Xrotation Yrotation Zrotation
		JOINT Spine1
		{
			OFFSET 0.000000 13.840401 0.053500
			CHANNELS 3 Xrotation Yrotation Zrotation
			JOINT Spine2
			{
				OFFSET 0.000000 14.712700 -0.366200
				CHANNELS 3 Xrotation Yrotation Zrotation
				JOINT Neck
				{
					OFFSET 0.000000 35.415497 -3.314200
					CHANNELS 3 Xrotation Yrotation Zrotation
					JOINT Head
					{
						OFFSET 0.000000 16.899200 1.218300
						CHANNELS 3 Xrotation Yrotation Zrotation
						JOINT HeadTop_End
						{
							OFFSET 0.000000 22.206207 2.192500
							CHANNELS 3 Xrotation Yrotation Zrotation
							End Site
							{
								OFFSET 0.000000 22.314178 0.000000
							}
						}
					}
				}
				JOINT LeftShoulder
				{
					OFFSET 12.896400 26.716293 -4.548400
					CHANNELS 3 Xrotation Yrotation Zrotation
					JOINT LeftArm
					{
						OFFSET 19.027000 -4.857010 -1.718400
						CHANNELS 3 Xrotation Yrotation Zrotation
						JOINT LeftForeArm
						{
							OFFSET 24.179897 0.000000 0.000000
							CHANNELS 3 Xrotation Yrotation Zrotation
							JOINT LeftHand
							{
								OFFSET 27.156403 0.000000 0.000000
								CHANNELS 3 Xrotation Yrotation Zrotation
								JOINT LeftHandIndex1
								{
									OFFSET 16.441200 0.000000 0.000000
									CHANNELS 3 Xrotation Yrotation Zrotation
									JOINT LeftHandIndex2
									{
										OFFSET 4.821899 0.000000 0.000000
										CHANNELS 3 Xrotation Yrotation Zrotation
										JOINT LeftHandIndex3
										{
											OFFSET 6.386497 0.000000 0.000000
											CHANNELS 3 Xrotation Yrotation Zrotation
											JOINT LeftHandIndex4
											{
												OFFSET 5.188988 0.000000 0.000000
												CHANNELS 3 Xrotation Yrotation Zrotation
												End Site
												{
													OFFSET -0.178703 5.185913 0.000177
												}
											}
										}
									}
								}
								JOINT LeftHandThumb1
								{
									OFFSET 6.534897 -5.032593 5.900300
									CHANNELS 3 Xrotation Yrotation Zrotation
									JOINT LeftHandThumb2
									{
										OFFSET 3.818176 -2.204422 2.204423
										CHANNELS 3 Xrotation Yrotation Zrotation
										JOINT LeftHandThumb3
										{
											OFFSET 3.252098 -1.877594 1.877601
											CHANNELS 3 Xrotation Yrotation Zrotation
											JOINT LeftHandThumb4
											{
												OFFSET 5.251778 -3.032120 3.032117
												CHANNELS 3 Xrotation Yrotation Zrotation
												End Site
												{
													OFFSET 0.000023 6.780014 0.000000
												}
											}
										}
									}
								}
							}
						}
					}
				}
				JOINT RightShoulder
				{
					OFFSET -12.896300 26.716293 -4.548400
					CHANNELS 3 Xrotation Yrotation Zrotation
					JOINT RightArm
					{
						OFFSET -19.027000 -4.857010 -1.718400
						CHANNELS 3 Xrotation Yrotation Zrotation
						JOINT RightForeArm
						{
							OFFSET -24.179897 0.000000 0.000000
							CHANNELS 3 Xrotation Yrotation Zrotation
							JOINT RightHand
							{
								OFFSET -27.156403 0.000000 0.000000
								CHANNELS 3 Xrotation Yrotation Zrotation
								JOINT RightHandThumb1
								{
									OFFSET -6.591202 -4.852203 5.988100
									CHANNELS 3 Xrotation Yrotation Zrotation
									JOINT RightHandThumb2
									{
										OFFSET -3.818176 -2.204422 2.204423
										CHANNELS 3 Xrotation Yrotation Zrotation
										JOINT RightHandThumb3
										{
											OFFSET -3.252098 -1.877594 1.877601
											CHANNELS 3 Xrotation Yrotation Zrotation
											JOINT RightHandThumb4
											{
												OFFSET -5.251778 -3.032120 3.032117
												CHANNELS 3 Xrotation Yrotation Zrotation
												End Site
												{
													OFFSET -0.000023 6.780014 0.000000
												}
											}
										}
									}
								}
								JOINT RightHandIndex1
								{
									OFFSET -16.029404 0.000000 0.000000
									CHANNELS 3 Xrotation Yrotation Zrotation
									JOINT RightHandIndex2
									{
										OFFSET -5.213303 0.000000 0.000000
										CHANNELS 3 Xrotation Yrotation Zrotation
										JOINT RightHandIndex3
										{
											OFFSET -6.386528 0.000000 0.000000
											CHANNELS 3 Xrotation Yrotation Zrotation
											JOINT RightHandIndex4
											{
												OFFSET -5.189026 0.000000 0.000000
												CHANNELS 3 Xrotation Yrotation Zrotation
												End Site
												{
													OFFSET 0.236702 5.183624 0.001972
												}
											}
										}
									}
								}
							}
						}
					}
				}
			}
		}
	}
	JOINT LeftUpLeg
	{
		OFFSET 14.073000 -7.904099 -1.463000
		CHANNELS 3 Xrotation Yrotation Zrotation
		JOINT LeftLeg
		{
			OFFSET -0.109806 -34.073280 4.093200
			CHANNELS 3 Xrotation Yrotation Zrotation
			JOINT LeftFoot
			{
				OFFSET 0.109806 -29.899420 -6.319000
				CHANNELS 3 Xrotation Yrotation Zrotation
				JOINT LeftToeBase
				{
					OFFSET 1.551100 -14.988700 20.535801
					CHANNELS 3 Xrotation Yrotation Zrotation
					JOINT LeftToe_End
					{
						OFFSET 0.221200 0.570800 13.248301
						CHANNELS 3 Xrotation Yrotation Zrotation
						End Site
						{
							OFFSET 0.000000 13.262435 0.000000
						}
					}
				}
			}
		}
	}
	JOINT RightUpLeg
	{
		OFFSET -13.839300 -7.904099 -1.463000
		CHANNELS 3 Xrotation Yrotation Zrotation
		JOINT RightLeg
		{
			OFFSET 0.109694 -34.073219 4.093300
			CHANNELS 3 Xrotation Yrotation Zrotation
			JOINT RightFoot
			{
				OFFSET -0.109694 -29.899384 -6.319200
				CHANNELS 3 Xrotation Yrotation Zrotation
				JOINT RightToeBase
				{
					OFFSET -1.551100 -14.988700 20.535801
					CHANNELS 3 Xrotation Yrotation Zrotation
					JOINT RightToe_End
					{
						OFFSET -0.221200 0.570900 13.248299
						CHANNELS 3 Xrotation Yrotation Zrotation
						End Site
						{
							OFFSET 0.000000 13.262440 0.000000
						}
					}
				}
			}
		}
	}
}
MOTION
Frames: 7
Frame Time: 0.033333
-6.665485 65.271683 60.142788 75.219261 -73.916574 67.433426 15.159511 -3.096604 -3.187945 14.853092 -1.208023 -0.948083 21.000870 -4.454455 1.991513 -0.918078 2.534578 1.665619 -30.394349 3.071354 -16.816003 -0.000002 0.000001 0.000000 -16.545471 -17.348028 -16.358978 -26.418388 11.940374 21.390990 -15.390757 -14.700466 -12.836557 -32.164730 -37.536893 31.293188 0.652347 9.453937 -24.543689 0.393118 2.026197 -21.957655 0.522846 0.707776 -27.284569 -0.000001 -0.000001 -0.000001 36.774548 8.584258 -16.863119 2.295253 23.044193 15.130544 0.424781 18.444388 14.528072 0.000000 0.000000 -0.000001 -16.727470 15.225815 11.725545 16.105750 -27.106183 -20.685694 28.625058 18.395282 6.889543 54.518235 29.210510 -81.186647 -5.252255 7.816492 9.821448 -0.772382 -29.663949 -5.802797 -1.793326 -15.916518 -4.584590 0.000000 -0.000001 0.000002 0.513856 -12.495559 23.141258 1.287596 -3.143265 5.201250 1.251810 -1.549654 6.501547 0.000000 0.000000 -0.000000 -32.724256 0.076450 47.971861 60.483142 -18.019325 -3.962308 -48.484443 1.908909 -24.503198 -0.098767 -3.284281 10.990830 0.000000 -0.000001 -0.000001 -48.876803 6.564558 -29.739460 27.576214 23.547403 -0.788759 -22.194025 21.476903 40.436113 -6.247069 9.385733 10.757831 -0.000000 0.000000 0.000000 
-4.540558 60.837021 62.362736 85.349197 -72.665180 76.068957 13.258543 -6.225165 -3.179434 14.705959 -3.647053 -0.859598 19.051677 -5.708700 1.442509 1.541401 5.039986 3.570115 -29.069452 4.381755 -15.298000 -0.000000 0.000001 0.000001 -14.825201 -23.992018 -14.454099 -27.838683 10.823934 17.485395 -27.844909 -39.038414 -23.243345 -33.577128 -37.667090 27.029492 0.652343 9.453938 -24.543691 0.393118 2.026193 -21.957653 0.522846 0.707773 -27.284569 -0.000001 0.000001 0.000001 36.774548 8.584260 -16.863119 2.295253 23.044194 15.130542 0.424781 18.444388 14.528072 0.000001 -0.000000 -0.000000 -14.541625 13.644262 12.171184 13.045232 -29.521194 -21.620894 30.380931 15.251459 6.580345 54.701107 28.921442 -78.989942 -5.251521 7.815957 9.821104 -0.771846 -29.663375 -5.804112 -1.792099 -15.916663 -4.586356 0.000000 0.000002 0.000001 0.656619 -12.630936 24.685822 1.567480 -3.487059 10.110218 1.320930 -1.727023 8.952866 -0.000002 0.000000 0.000000 -37.359591 -4.739379 50.543181 73.844351 -19.325207 -5.360157 -55.846509 0.958931 -21.548229 -0.114570 -3.340917 10.924799 -0.000000 0.000001 -0.000000 -54.812357 10.088283 -30.008989 29.799893 23.784677 -0.684764 -21.807710 19.515450 44.073773 -6.247041 9.387112 10.757819 0.000000 -0.000002 -0.000001 
-2.447962 58.482391 63.711594 89.584659 -71.441047 79.222306 11.939160 -8.140488 -3.023952 14.611691 -4.831028 -0.877821 17.878812 -6.182081 0.853190 3.750362 7.127039 5.224050 -27.882915 5.485218 -13.763571 0.000003 0.000001 0.000001 -6.924039 -33.657963 -7.454323 -28.685551 4.997437 11.790937 -38.579579 -51.545139 -36.867865 -41.191908 -40.918468 14.908674 0.652343 9.453939 -24.543689 0.393118 2.026194 -21.957651 0.522847 0.707776 -27.284572 0.000000 -0.000000 0.000002 36.774548 8.584258 -16.863119 2.295255 23.044194 15.130541 0.424783 18.444386 14.528070 -0.000002 0.000002 0.000001 -11.188305 12.554958 11.725329 6.234481 -31.150591 -20.805473 30.543380 9.418712 1.966537 56.924641 32.726513 -76.177872 -4.699152 7.629475 10.425287 -0.771456 -29.662484 -5.805880 -1.790652 -15.916199 -4.588637 0.000001 0.000001 0.000002 1.116017 -12.956104 26.329059 1.868069 -3.818908 15.100754 1.390181 -1.872262 11.056114 -0.000000 -0.000001 0.000001 -39.213663 -10.945282 51.079840 80.984515 -19.102492 -6.964119 -57.452689 2.174853 -22.543680 -0.829236 -3.609103 9.870206 0.000000 0.000000 0.000000 -56.893656 12.186875 -30.305006 27.197678 23.065574 -0.160050 -19.708460 18.017786 47.153936 -6.246899 9.388287 10.757539 0.000000 0.000002 -0.000000 
-0.456575 57.059181 64.082481 89.607786 -70.564822 78.756992 11.103873 -8.765155 -3.541608 14.187138 -4.720420 -1.588027 16.937032 -5.878422 -0.373770 5.656272 8.693204 6.519639 -26.890789 6.393851 -12.313630 -0.000000 0.000001 0.000001 4.806919 -42.841761 4.140019 -28.570101 -0.361987 4.201233 -39.450903 -61.331718 -41.904358 -53.061305 -42.146741 -2.111651 0.652341 9.453940 -24.543689 0.393115 2.026195 -21.957649 0.522845 0.707776 -27.284567 -0.000000 0.000000 0.000000 36.774544 8.584259 -16.863124 2.295253 23.044193 15.130544 0.424784 18.444388 14.528072 -0.000001 0.000002 -0.000001 -7.036771 11.789012 10.567333 -3.963860 -31.075131 -20.919013 30.567863 8.324865 0.228733 57.364587 34.562352 -73.454709 -3.194043 7.140834 12.090328 -0.772013 -29.661497 -5.809896 -1.788570 -15.914455 -4.591569 0.000001 -0.000001 0.000000 2.238878 -13.631474 29.041435 2.092097 -4.106259 19.186952 1.427728 -1.933282 12.039168 -0.000001 -0.000001 -0.000001 -41.766658 -16.339358 51.317636 84.857710 -19.274842 -8.064350 -55.317832 3.195401 -24.499276 -2.765864 -4.070067 8.823481 -0.000000 0.000000 0.000000 -58.249895 13.449648 -30.727136 25.372956 22.009023 -0.032440 -17.892586 17.472409 49.323958 -6.246339 9.389402 10.756698 -0.000001 -0.000003 0.000000 
1.289457 56.226105 63.974964 88.739163 -69.861456 77.550419 10.665208 -9.115777 -4.182600 14.024976 -4.641738 -2.224355 16.329987 -5.576247 -1.458793 7.206907 9.680076 7.374624 -26.145527 7.121275 -11.051482 -0.000000 0.000000 -0.000001 15.666895 -48.856234 15.545755 -26.157108 -1.110803 -0.888866 -42.702332 -76.052947 -48.791033 -62.277535 -40.967830 -15.378070 0.652343 9.453933 -24.543689 0.393118 2.026191 -21.957651 0.522847 0.707776 -27.284565 -0.000000 -0.000004 -0.000002 36.774544 8.584258 -16.863112 2.295253 23.044196 15.130541 0.424783 18.444386 14.528070 -0.000000 -0.000001 -0.000003 -2.562323 11.156524 9.054105 -15.097363 -30.164673 -20.758603 28.422096 11.311820 -0.436477 56.539602 35.225430 -69.971347 -0.962924 6.468932 14.600328 -0.771435 -29.659775 -5.814414 -1.786331 -15.912958 -4.596524 -0.000000 -0.000002 0.000001 4.008144 -14.461040 33.137264 2.346649 -4.420433 23.683397 1.458833 -1.967593 12.713933 -0.000001 -0.000002 -0.000000 -44.680652 -20.081176 50.863538 87.597647 -17.768828 -8.256626 -53.334799 3.602881 -25.728180 -5.147561 -4.641024 8.538015 -0.000000 -0.000001 -0.000000 -59.542119 13.997586 -30.794345 24.260677 20.886640 -0.158049 -16.020192 17.448244 50.660893 -6.245613 9.390415 10.755425 -0.000000 -0.000000 -0.000000 
2.310528 55.902405 63.195961 86.434166 -69.758115 75.225962 10.533541 -9.324401 -4.356434 14.127568 -4.766465 -2.344888 16.121304 -5.413371 -1.920278 8.382550 10.020208 7.722294 -25.651909 7.645629 -9.998407 -0.000002 0.000000 -0.000000 18.578147 -50.900540 18.648896 -24.341993 0.609664 -5.051169 -32.946428 -85.153048 -41.073373 -65.533985 -39.562354 -20.599553 0.652343 9.453936 -24.543687 0.393115 2.026190 -21.957653 0.522846 0.707778 -27.284572 0.000001 -0.000000 0.000003 36.774544 8.584260 -16.863116 2.295253 23.044194 15.130542 0.424781 18.444386 14.528074 -0.000000 0.000001 0.000005 -0.024907 10.813743 8.167172 -21.278882 -31.248163 -19.237516 25.759015 15.610524 -0.810966 55.699947 35.310514 -66.980011 1.761916 5.733943 17.739748 -0.770823 -29.658597 -5.817007 -1.785137 -15.912100 -4.599877 -0.000003 -0.000001 -0.000004 6.251230 -15.183791 37.802573 2.539806 -4.690954 27.322992 1.464628 -1.944997 12.606469 -0.000000 -0.000003 0.000001 -46.645599 -22.090229 50.505243 88.352411 -16.363050 -7.982817 -50.852702 3.878253 -26.914548 -8.638649 -5.327113 7.017965 0.000000 0.000000 -0.000000 -60.920896 14.427883 -30.437468 26.221878 20.269580 -0.520456 -15.606009 17.566309 50.492734 -6.245193 9.390657 10.754766 -0.000000 -0.000001 -0.000001 
3.228991 56.027443 62.166084 83.961869 -69.585141 72.681634 10.525652 -9.079699 -4.600619 14.253905 -4.589074 -2.645267 15.987402 -5.082904 -2.486620 9.376177 9.663720 7.636193 -25.160148 7.770184 -8.739642 0.000002 0.000001 0.000000 21.846283 -54.145191 22.073312 -20.719459 3.839618 -8.457762 -44.912927 -95.078337 -54.140529 -69.069277 -38.863148 -25.690604 0.652341 9.453937 -24.543689 0.393118 2.026198 -21.957653 0.522843 0.707778 -27.284569 -0.000001 0.000001 -0.000002 36.774548 8.584258 -16.863114 2.295251 23.044201 15.130542 0.424782 18.444388 14.528072 -0.000000 0.000000 0.000003 4.470222 10.159315 6.696456 -31.506546 -31.237686 -17.706459 20.988160 20.310314 0.613446 53.668194 34.472658 -62.381654 4.754034 5.041089 21.273794 -0.769790 -29.656384 -5.822088 -1.782697 -15.909826 -4.606723 0.000001 0.000000 -0.000002 9.007983 -15.554265 44.172015 2.826191 -5.003307 31.931927 1.480931 -1.940294 12.783702 0.000002 0.000001 -0.000006 -48.677129 -23.622633 49.504149 88.160011 -13.879673 -7.116123 -47.587885 4.090448 -28.343075 -12.338207 -6.086188 5.212006 -0.000000 -0.000000 0.000001 -62.372406 14.225416 -29.670704 28.269835 19.487722 -0.977332 -14.752054 17.897256 49.717449 -6.244219 9.391641 10.753141 -0.000001 -0.000000 0.000001 
